#N canvas 75 158 1116 461 10;
#X obj 19 48 arduino 1;
#X obj 19 18 r myArduinoIn;
#X obj 19 78 s myArduinoOut;
#X obj 320 2 pduinoAnalog, f 34;
#X obj 932 -3 pduinoDigitalInput, f 57;
#X floatatom 256 44 5 0 0 0 - - -;
#X floatatom 1271 31 5 0 0 0 - - -;
#X obj 1299 -3 pduinoDigitalOutput, f 57;
#X obj 247 74 s potL;
#X text 125 65;
#X floatatom 316 43 5 0 0 0 - - -;
#X floatatom 369 44 5 0 0 0 - - -;
#X floatatom 418 43 5 0 0 0 - - -;
#X floatatom 494 46 5 0 0 0 - - -;
#X floatatom 571 44 5 0 0 0 - - -;
#X floatatom 609 44 5 0 0 0 - - -;
#X floatatom 657 44 5 0 0 0 - - -;
#X obj 305 74 s potR;
#X obj 362 81 s joyAX;
#X obj 420 80 s joyAY;
#X obj 495 76 s joyBX;
#X obj 560 79 s joyBY;
#X connect 0 0 2 0;
#X connect 1 0 0 0;
#X connect 3 0 5 0;
#X connect 3 1 10 0;
#X connect 3 2 11 0;
#X connect 3 3 12 0;
#X connect 3 4 13 0;
#X connect 3 5 14 0;
#X connect 3 6 15 0;
#X connect 3 7 16 0;
#X connect 4 11 6 0;
#X connect 5 0 8 0;
#X connect 10 0 17 0;
#X connect 11 0 18 0;
#X connect 12 0 19 0;
