#N canvas 300 187 893 495 10;
#X floatatom 347 69 5 0 0 0 - - -;
#X obj 67 58 loadbang;
#X obj 67 105 bng 15 250 50 0 empty empty empty 17 7 0 10 -262144 -1
-1;
#X msg 13 205 2, f 2;
#X msg 37 205 3, f 2;
#X msg 63 205 4, f 2;
#X msg 87 205 5, f 2;
#X msg 112 205 6, f 2;
#X msg 136 205 7, f 2;
#X msg 162 205 8, f 2;
#X msg 186 205 9, f 2;
#X msg 211 205 10, f 2;
#X msg 235 205 11, f 2;
#X msg 261 205 12, f 2;
#X msg 285 205 13, f 2;
#X obj 67 128 t b b b b b b b b b b b b b;
#X obj 189 428 outlet;
#X obj 236 428 outlet;
#X obj 283 428 outlet;
#X obj 330 428 outlet;
#X obj 376 428 outlet;
#X obj 423 428 outlet;
#X obj 470 428 outlet;
#X obj 517 428 outlet;
#X obj 564 428 outlet;
#X obj 611 428 outlet;
#X obj 658 428 outlet;
#X msg 347 201 pinMode 2 input;
#X msg 347 161 set pinMode \$1 input;
#X msg 555 156 set digital \$1 1;
#X text 578 77 to autostart digital inputs \, patch to "t f f";
#X msg 555 201 digital 2 1;
#X obj 435 121 t f b f b;
#X obj 347 292 route digital;
#X obj 427 355 tgl 15 0 empty empty 7 4 25 1 10 -203904 -1 -1 0 1;
#X obj 442 355 tgl 15 0 empty empty 8 4 25 1 10 -203904 -1 -1 0 1;
#X obj 457 355 tgl 15 0 empty empty 9 4 25 1 10 -203904 -1 -1 1 1;
#X obj 472 355 tgl 15 0 empty empty 10 0 25 1 10 -203904 -1 -1 1 1
;
#X obj 487 355 tgl 15 0 empty empty 11 0 25 1 10 -203904 -1 -1 1 1
;
#X obj 502 355 tgl 15 0 empty empty 12 0 25 1 10 -203904 -1 -1 1 1
;
#X obj 352 355 tgl 15 0 empty empty 2 4 25 1 10 -203904 -1 -1 1 1;
#X obj 367 355 tgl 15 0 empty empty 3 4 25 1 10 -203904 -1 -1 0 1;
#X obj 382 355 tgl 15 0 empty empty 4 4 25 1 10 -203904 -1 -1 1 1;
#X obj 397 355 tgl 15 0 empty empty 5 4 25 1 10 -203904 -1 -1 1 1;
#X obj 412 355 tgl 15 0 empty empty 6 4 25 1 10 -203904 -1 -1 1 1;
#X text 166 271 delete unused pins;
#X obj 347 325 route 2 3 4 5 6 7 8 9 10 11 12;
#X text 527 355 delete unused pins;
#X obj 67 82 delay 5000;
#X obj 347 236 s myArduinoIn;
#X obj 347 266 r myArduinoOut;
#X obj 73 273 s autostart2;
#X obj 499 77 r autostart2;
#X obj 139 82 metro 8000;
#X obj 738 356 outlet;
#X floatatom 737 333 5 0 0 0 - - -;
#X text 711 201 comment: Avoid pin 7 and other floating pins.;
#X connect 0 0 28 0;
#X connect 0 0 29 0;
#X connect 1 0 48 0;
#X connect 1 0 53 0;
#X connect 2 0 15 0;
#X connect 3 0 51 0;
#X connect 4 0 51 0;
#X connect 5 0 51 0;
#X connect 6 0 51 0;
#X connect 7 0 51 0;
#X connect 8 0 51 0;
#X connect 9 0 51 0;
#X connect 10 0 51 0;
#X connect 11 0 51 0;
#X connect 12 0 51 0;
#X connect 13 0 51 0;
#X connect 14 0 51 0;
#X connect 15 0 3 0;
#X connect 15 1 4 0;
#X connect 15 2 5 0;
#X connect 15 3 6 0;
#X connect 15 4 7 0;
#X connect 15 5 8 0;
#X connect 15 6 9 0;
#X connect 15 7 10 0;
#X connect 15 8 11 0;
#X connect 15 9 12 0;
#X connect 15 10 13 0;
#X connect 15 11 14 0;
#X connect 27 0 49 0;
#X connect 28 0 27 0;
#X connect 29 0 31 0;
#X connect 31 0 49 0;
#X connect 32 0 28 0;
#X connect 32 1 27 0;
#X connect 32 2 29 0;
#X connect 32 3 31 0;
#X connect 33 0 46 0;
#X connect 33 0 55 0;
#X connect 34 0 21 0;
#X connect 35 0 22 0;
#X connect 36 0 23 0;
#X connect 37 0 24 0;
#X connect 38 0 25 0;
#X connect 39 0 26 0;
#X connect 40 0 16 0;
#X connect 41 0 17 0;
#X connect 42 0 18 0;
#X connect 43 0 19 0;
#X connect 44 0 20 0;
#X connect 46 0 40 0;
#X connect 46 1 41 0;
#X connect 46 2 42 0;
#X connect 46 3 43 0;
#X connect 46 4 44 0;
#X connect 46 5 34 0;
#X connect 46 6 35 0;
#X connect 46 7 36 0;
#X connect 46 8 37 0;
#X connect 46 9 38 0;
#X connect 46 10 39 0;
#X connect 48 0 2 0;
#X connect 50 0 33 0;
#X connect 52 0 32 0;
#X connect 53 0 2 0;
#X connect 55 0 54 0;
