#N canvas 153 225 1069 495 10;
#X obj 337 304 route analog;
#X msg 337 178 set pinMode \$1 analog;
#X floatatom 337 33 5 0 0 0 - - -;
#X obj 349 101 > 13;
#X obj 337 125 spigot;
#X msg 337 219 pinMode 14 analog;
#X obj 337 328 route 0 1 2 3 4 5 6 7;
#X floatatom 25 396 5 0 0 0 - - -;
#X floatatom 127 396 5 0 0 0 - - -;
#X floatatom 228 396 5 0 0 0 - - -;
#X floatatom 322 396 5 0 0 0 - - -;
#X floatatom 423 396 5 0 0 0 - - -;
#X floatatom 542 396 5 0 0 0 - - -;
#X floatatom 653 396 5 0 0 0 - - -;
#X floatatom 766 396 5 0 0 0 - - -;
#X text 456 220 2 click to initiate pinMode;
#X text 483 329 3 Analog outputs;
#X text 162 395 A1-15;
#X text 262 395 A2-16;
#X text 358 395 A3-17;
#X text 460 395 A4-18;
#X text 576 395 A5-19;
#X text 59 395 A0-14;
#X text 687 395 A6-20;
#X text 802 395 A7-21;
#X obj 56 27 loadbang;
#X msg 24 144 14, f 2;
#X msg 48 144 15, f 2;
#X msg 74 144 16, f 2;
#X msg 98 144 17, f 2;
#X msg 123 144 18, f 2;
#X msg 147 144 19, f 2;
#X msg 173 144 20, f 2;
#X msg 197 144 21, f 2;
#X obj 64 182 s autostart;
#X obj 489 96 r autostart;
#X msg 489 178 bang;
#X obj 56 82 bng 15 250 50 0 empty empty empty 17 7 0 10 -262144 -1
-1;
#X obj 56 50 delay 4000;
#X obj 25 425 outlet;
#X obj 127 425 outlet;
#X obj 228 425 outlet;
#X obj 322 425 outlet;
#X obj 423 425 outlet;
#X obj 542 425 outlet;
#X obj 653 425 outlet;
#X obj 766 425 outlet;
#X text 372 34 set analog pinMode A0 - A7;
#X obj 56 108 t b b b b b b b b b;
#X obj 337 245 s myArduinoIn;
#X obj 337 279 r myArduinoOut;
#X obj 127 50 delay 6000;
#X text 684 156 comment: delete unused pins at bottom and on left;
#X connect 0 0 6 0;
#X connect 1 0 5 0;
#X connect 2 0 3 0;
#X connect 2 0 4 0;
#X connect 3 0 4 1;
#X connect 4 0 1 0;
#X connect 5 0 49 0;
#X connect 6 0 7 0;
#X connect 6 1 8 0;
#X connect 6 2 9 0;
#X connect 6 3 10 0;
#X connect 6 4 11 0;
#X connect 6 5 12 0;
#X connect 6 6 13 0;
#X connect 6 7 14 0;
#X connect 7 0 39 0;
#X connect 8 0 40 0;
#X connect 9 0 41 0;
#X connect 10 0 42 0;
#X connect 11 0 43 0;
#X connect 12 0 44 0;
#X connect 13 0 45 0;
#X connect 14 0 46 0;
#X connect 25 0 38 0;
#X connect 25 0 51 0;
#X connect 26 0 34 0;
#X connect 27 0 34 0;
#X connect 28 0 34 0;
#X connect 29 0 34 0;
#X connect 30 0 34 0;
#X connect 31 0 34 0;
#X connect 32 0 34 0;
#X connect 33 0 34 0;
#X connect 35 0 36 0;
#X connect 35 0 1 0;
#X connect 36 0 5 0;
#X connect 37 0 48 0;
#X connect 38 0 37 0;
#X connect 48 0 26 0;
#X connect 48 1 27 0;
#X connect 48 2 28 0;
#X connect 48 3 29 0;
#X connect 48 4 30 0;
#X connect 48 5 31 0;
#X connect 48 6 32 0;
#X connect 48 7 33 0;
#X connect 50 0 0 0;
#X connect 51 0 37 0;
