#N canvas 311 190 811 434 10;
#X msg 103 299 set pinMode \$1 output;
#X msg 103 326 pinMode 3 output;
#X obj 313 393 s myArduinoIn;
#X obj 513 147 tgl 15 0 empty empty 7 4 -6 1 10 -233017 -1 -1 0 1;
#X obj 528 147 tgl 15 0 empty empty 8 4 -6 1 10 -233017 -1 -1 0 1;
#X obj 543 147 tgl 15 0 empty empty 9 4 -6 1 10 -233017 -1 -1 0 1;
#X obj 558 147 tgl 15 0 empty empty 10 0 -6 1 10 -233017 -1 -1 0 1
;
#X obj 573 147 tgl 15 0 empty empty 11 0 -6 1 10 -233017 -1 -1 0 1
;
#X obj 588 147 tgl 15 0 empty empty 12 0 -6 1 10 -233017 -1 -1 0 1
;
#X obj 603 147 tgl 15 0 empty empty 13 0 -6 1 10 -233017 -1 -1 0 1
;
#X obj 438 147 tgl 15 0 empty empty 2 4 -6 1 10 -233017 -1 -1 0 1;
#X obj 453 147 tgl 15 0 empty empty 3 4 -6 1 10 -233017 -1 -1 0 1;
#X obj 468 147 tgl 15 0 empty empty 4 4 -6 1 10 -233017 -1 -1 0 1;
#X obj 483 147 tgl 15 0 empty empty 5 4 -6 1 10 -233017 -1 -1 0 1;
#X obj 498 147 tgl 15 0 empty empty 6 4 -6 1 10 -233017 -1 -1 0 1;
#X obj 359 350 trigger bang anything;
#X obj 359 329 list trim;
#X obj 359 309 list prepend set digital;
#X msg 346 223 0 \$1;
#X msg 382 244 1 \$1;
#X msg 418 223 2 \$1;
#X msg 454 244 3 \$1;
#X msg 490 223 4 \$1;
#X msg 526 244 5 \$1;
#X msg 562 223 6 \$1;
#X msg 598 244 7 \$1;
#X msg 634 223 8 \$1;
#X msg 670 244 9 \$1;
#X msg 706 223 10 \$1;
#X msg 742 244 11 \$1;
#X obj 80 47 loadbang;
#X obj 80 94 bng 15 250 50 0 empty empty empty 17 7 0 10 -262144 -1
-1;
#X msg 26 224 2, f 2;
#X msg 50 224 3, f 2;
#X msg 76 224 4, f 2;
#X msg 100 224 5, f 2;
#X msg 125 224 6, f 2;
#X msg 149 224 7, f 2;
#X msg 175 224 8, f 2;
#X msg 199 224 9, f 2;
#X msg 224 224 10, f 2;
#X msg 248 224 11, f 2;
#X msg 274 224 12, f 2;
#X msg 298 224 13, f 2;
#X obj 80 147 t b b b b b b b b b b b b b;
#X obj 80 71 delay 5500;
#X obj 406 77 inlet;
#X obj 451 77 inlet;
#X text 498 78 connect inlets per LED;
#X text 42 121 delete unused pins and connect;
#X obj 103 352 t f b;
#X connect 0 0 1 0;
#X connect 1 0 50 0;
#X connect 3 0 23 0;
#X connect 4 0 24 0;
#X connect 5 0 25 0;
#X connect 6 0 26 0;
#X connect 7 0 27 0;
#X connect 8 0 28 0;
#X connect 9 0 29 0;
#X connect 10 0 18 0;
#X connect 11 0 19 0;
#X connect 12 0 20 0;
#X connect 13 0 21 0;
#X connect 14 0 22 0;
#X connect 15 0 2 0;
#X connect 15 1 2 0;
#X connect 16 0 15 0;
#X connect 17 0 16 0;
#X connect 18 0 17 0;
#X connect 19 0 17 0;
#X connect 20 0 17 0;
#X connect 21 0 17 0;
#X connect 22 0 17 0;
#X connect 23 0 17 0;
#X connect 24 0 17 0;
#X connect 25 0 17 0;
#X connect 26 0 17 0;
#X connect 27 0 17 0;
#X connect 28 0 17 0;
#X connect 29 0 17 0;
#X connect 30 0 45 0;
#X connect 32 0 0 0;
#X connect 33 0 0 0;
#X connect 34 0 0 0;
#X connect 35 0 0 0;
#X connect 36 0 0 0;
#X connect 37 0 0 0;
#X connect 38 0 0 0;
#X connect 39 0 0 0;
#X connect 40 0 0 0;
#X connect 41 0 0 0;
#X connect 42 0 0 0;
#X connect 43 0 0 0;
#X connect 44 0 32 0;
#X connect 44 1 33 0;
#X connect 44 2 34 0;
#X connect 44 3 35 0;
#X connect 44 4 36 0;
#X connect 44 5 37 0;
#X connect 44 6 38 0;
#X connect 44 7 39 0;
#X connect 44 8 40 0;
#X connect 44 9 41 0;
#X connect 44 10 42 0;
#X connect 44 11 43 0;
#X connect 45 0 31 0;
#X connect 46 0 10 0;
#X connect 47 0 11 0;
#X connect 50 0 2 0;
#X connect 50 1 2 0;
